<svg width="16" height="16" viewBox="0 0 16 16" fill="none" xmlns="http://www.w3.org/2000/svg">
<path d="M6.41615 7.74577C7.21368 6.82483 8.64231 6.82481 9.43986 7.74572L11.9904 10.6907C13.1121 11.986 12.192 14 10.4785 14H5.37771C3.66422 14 2.74411 11.986 3.86583 10.6907L6.41615 7.74577Z" fill="url(#paint0_linear_39_67)"/>
<path d="M4.9999 7.5C4.9999 8.32843 4.32833 9 3.4999 9C2.67148 9 1.9999 8.32843 1.9999 7.5C1.9999 6.67157 2.67148 6 3.4999 6C4.32833 6 4.9999 6.67157 4.9999 7.5Z" fill="url(#paint1_linear_39_67)"/>
<path d="M7.5 4C7.5 4.82843 6.82843 5.5 6 5.5C5.17157 5.5 4.5 4.82843 4.5 4C4.5 3.17157 5.17157 2.5 6 2.5C6.82843 2.5 7.5 3.17157 7.5 4Z" fill="url(#paint2_linear_39_67)"/>
<path d="M11.5 4C11.5 4.82843 10.8284 5.5 10 5.5C9.17157 5.5 8.5 4.82843 8.5 4C8.5 3.17157 9.17157 2.5 10 2.5C10.8284 2.5 11.5 3.17157 11.5 4Z" fill="url(#paint3_linear_39_67)"/>
<path d="M14.0001 7.49998C14.0001 8.3284 13.3285 8.99998 12.5001 8.99998C11.6716 8.99998 11.0001 8.3284 11.0001 7.49998C11.0001 6.67155 11.6716 5.99998 12.5001 5.99998C13.3285 5.99998 14.0001 6.67155 14.0001 7.49998Z" fill="url(#paint4_linear_39_67)"/>
<defs>
<linearGradient id="paint0_linear_39_67" x1="7.9282" y1="6" x2="7.9282" y2="14" gradientUnits="userSpaceOnUse">
<stop stop-color="#09002E"/>
<stop offset="1" stop-color="#3000ED"/>
</linearGradient>
<linearGradient id="paint1_linear_39_67" x1="2.41455" y1="6" x2="4.91455" y2="8.5" gradientUnits="userSpaceOnUse">
<stop stop-color="#3000ED"/>
<stop offset="1" stop-color="#10004F"/>
</linearGradient>
<linearGradient id="paint2_linear_39_67" x1="5" y1="3" x2="7" y2="6" gradientUnits="userSpaceOnUse">
<stop stop-color="#3000ED"/>
<stop offset="1" stop-color="#10004F"/>
</linearGradient>
<linearGradient id="paint3_linear_39_67" x1="11" y1="3" x2="8.5" y2="6" gradientUnits="userSpaceOnUse">
<stop stop-color="#3000ED"/>
<stop offset="1" stop-color="#10004F"/>
</linearGradient>
<linearGradient id="paint4_linear_39_67" x1="13.5" y1="6.5" x2="11.5" y2="8.5" gradientUnits="userSpaceOnUse">
<stop stop-color="#3000ED"/>
<stop offset="1" stop-color="#10004F"/>
</linearGradient>
</defs>
</svg>
